<svg width="375" height="80" viewBox="0 0 375 80" fill="none" xmlns="http://www.w3.org/2000/svg">
<path d="M138.383 0.0593765C145.975 -0.801 152 7.85154 152 15.4921C152 35.3744 168.118 51.4921 188 51.4921C207.882 51.4921 224 35.3744 224 15.4921C224 7.88996 229.993 -0.69117 237.546 0.164868L364.352 14.5351C370.417 15.2226 375 20.3545 375 26.4589V65.4921C375 73.2241 368.732 79.4921 361 79.4921H14C6.268 79.4921 0 73.2241 0 65.4921V26.4589C2.63501e-05 20.3545 4.58285 15.2226 10.6484 14.5351L138.383 0.0593765Z" fill="black"/>
</svg>
